<svg xmlns="http://www.w3.org/2000/svg" version="1.1" xmlns:xlink="http://www.w3.org/1999/xlink" xmlns:svgjs="http://svgjs.dev/svgjs" width="1500" height="1500" viewBox="0 0 1500 1500"><rect width="1500" height="1500" fill="#ffffff"></rect><g transform="matrix(0.6666666666666666,0,0,0.6666666666666666,249.39393939393938,657.934490775396)"><svg viewBox="0 0 396 73" data-background-color="#ffffff" preserveAspectRatio="xMidYMid meet" height="276" width="1500" xmlns="http://www.w3.org/2000/svg" xmlns:xlink="http://www.w3.org/1999/xlink"><g id="tight-bounds" transform="matrix(1,0,0,1,0.2400000000000091,0.02599007280488763)"><svg viewBox="0 0 395.52 72.94801985439021" height="72.94801985439021" width="395.52"><g><svg viewBox="0 0 662.6613539755868 122.21843043726793" height="72.94801985439021" width="395.52"><g transform="matrix(1,0,0,1,267.14135397558687,13.010310680292804)"><svg viewBox="0 0 395.52 96.19780907668232" height="96.19780907668232" width="395.52"><g id="textblocktransform"><svg viewBox="0 0 395.52 96.19780907668232" height="96.19780907668232" width="395.52" id="textblock"><g><svg viewBox="0 0 395.52 96.19780907668232" height="96.19780907668232" width="395.52"><g transform="matrix(1,0,0,1,0,0)"><svg width="395.52" viewBox="2.76 -35.64 187.19 45.53" height="96.19780907668232" data-palette-color="#000000"><path d="M17.94-5.59L28.27-35.11 33.08-35.11 19.97 0.05 15.89 0.05 2.76-35.11 7.57-35.11 17.94-5.59ZM49.39-25.95L49.39-25.95Q50.58-25.95 51.88-25.77 53.17-25.59 54.42-25.07L54.42-25.07Q55.66-24.54 56.77-23.62 57.88-22.71 58.74-21.24L58.74-21.24Q59.59-19.75 60.08-17.66 60.57-15.58 60.57-12.7L60.57-12.7Q60.57-9.81 60.08-7.73 59.59-5.64 58.74-4.17L58.74-4.17Q57.88-2.69 56.77-1.76 55.66-0.83 54.42-0.32L54.42-0.32Q53.17 0.22 51.88 0.4 50.58 0.59 49.39 0.59L49.39 0.59Q48.22 0.59 46.93 0.4 45.65 0.22 44.41-0.32L44.41-0.32Q43.16-0.83 42.06-1.76 40.96-2.69 40.11-4.17L40.11-4.17Q39.26-5.64 38.77-7.73 38.28-9.81 38.28-12.7L38.28-12.7Q38.28-15.58 38.77-17.66 39.26-19.75 40.11-21.24L40.11-21.24Q40.96-22.71 42.06-23.62 43.16-24.54 44.41-25.07L44.41-25.07Q45.65-25.59 46.92-25.77 48.19-25.95 49.39-25.95ZM49.39-22.51L49.39-22.51Q48-22.51 46.76-22.07 45.53-21.63 44.6-20.53L44.6-20.53Q43.65-19.41 43.09-17.53 42.53-15.65 42.53-12.7L42.53-12.7Q42.53-9.77 43.09-7.87 43.65-5.98 44.6-4.88L44.6-4.88Q45.53-3.76 46.76-3.33 48-2.91 49.39-2.91L49.39-2.91Q50.8-2.91 52.06-3.33 53.32-3.76 54.27-4.88L54.27-4.88Q55.22-5.98 55.77-7.87 56.32-9.77 56.32-12.7L56.32-12.7Q56.32-15.65 55.77-17.53 55.22-19.41 54.27-20.53L54.27-20.53Q53.32-21.63 52.06-22.07 50.8-22.51 49.39-22.51ZM69.36-25.39L69.36-31.2 73.55-31.2 73.55-25.39 82.1-25.39 82.1-21.85 73.55-21.85 73.55-7.28Q73.55-5.81 73.64-5.04 73.73-4.27 74.07-3.83L74.07-3.83Q74.7-2.95 76.63-2.95L76.63-2.95Q77.7-2.95 78.71-3.17L78.71-3.17Q79.73-3.39 80.59-3.66L80.59-3.66Q81.27-2.17 81.83-0.39L81.83-0.39Q78.95 0.59 76.02 0.59L76.02 0.59Q73.9 0.59 72.61 0.11 71.33-0.37 70.6-1.44L70.6-1.44Q69.84-2.56 69.6-4.13 69.36-5.69 69.36-8.45L69.36-8.45 69.36-21.85 65.69-21.85 65.69-25.39 69.36-25.39ZM105.9-4.71L107.12-1.42Q104.41-0.34 102.03 0.12 99.65 0.59 97.77 0.59L97.77 0.59Q94.89 0.59 92.74-0.33 90.59-1.25 89.16-2.91 87.74-4.57 87.02-6.87 86.3-9.18 86.3-11.96L86.3-11.96Q86.3-13.67 86.54-15.38 86.78-17.09 87.32-18.64 87.86-20.19 88.73-21.53 89.59-22.88 90.84-23.85 92.08-24.83 93.74-25.39 95.4-25.95 97.53-25.95L97.53-25.95Q102.97-25.95 105.73-22.55 108.49-19.14 108.49-12.79L108.49-12.79 108.49-11.45 90.62-11.45Q90.62-9.4 91.06-7.82 91.5-6.25 92.41-5.16 93.33-4.08 94.73-3.52 96.14-2.95 98.06-2.95L98.06-2.95Q99.14-2.95 100.2-3.11 101.26-3.27 102.26-3.53 103.26-3.78 104.18-4.1 105.1-4.42 105.9-4.71L105.9-4.71ZM90.74-14.82L104.26-14.82Q104.07-18.77 102.37-20.59 100.68-22.41 97.53-22.41L97.53-22.41Q94.38-22.41 92.73-20.59 91.08-18.77 90.74-14.82L90.74-14.82ZM113.74-1.49L115.2-5.1Q116.2-4.71 117.31-4.37 118.42-4.03 119.58-3.78 120.74-3.54 121.91-3.39 123.09-3.25 124.21-3.25L124.21-3.25Q126.14-3.25 127.7-3.69 129.26-4.13 130.39-4.97 131.51-5.81 132.12-7.04 132.73-8.28 132.73-9.86L132.73-9.86Q132.73-11.45 132.16-12.46 131.58-13.48 130.5-14.16 129.41-14.84 127.82-15.32 126.24-15.8 124.21-16.31L124.21-16.31Q121.96-16.89 120.07-17.61 118.18-18.33 116.8-19.48 115.42-20.63 114.64-22.33 113.86-24.02 113.86-26.56L113.86-26.56Q113.86-28.64 114.69-30.32 115.52-32.01 117.03-33.19 118.54-34.38 120.67-35.01 122.79-35.64 125.36-35.64L125.36-35.64Q126.6-35.64 127.9-35.49 129.19-35.33 130.46-35.06 131.73-34.79 132.95-34.4 134.17-34.01 135.24-33.54L135.24-33.54 133.78-29.93Q132.9-30.27 131.98-30.62 131.07-30.96 130.04-31.23 129.02-31.49 127.86-31.65 126.7-31.81 125.36-31.81L125.36-31.81Q124.01-31.81 122.79-31.52 121.57-31.23 120.63-30.6 119.69-29.98 119.13-28.98 118.57-27.98 118.57-26.56L118.57-26.56Q118.57-24.98 119.14-23.96 119.72-22.95 120.8-22.27 121.89-21.58 123.48-21.11 125.06-20.63 127.09-20.12L127.09-20.12Q129.34-19.53 131.23-18.81 133.12-18.09 134.5-16.94 135.88-15.8 136.66-14.09 137.44-12.38 137.44-9.86L137.44-9.86Q137.44-7.2 136.45-5.24 135.46-3.27 133.69-1.98 131.92-0.68 129.49-0.05 127.07 0.59 124.21 0.59L124.21 0.59Q118.81 0.59 113.74-1.49L113.74-1.49ZM160.58-25.39L164.78-25.39 164.78 0.56Q164.78 2.98 163.99 4.74 163.2 6.49 161.79 7.64 160.39 8.79 158.46 9.34 156.53 9.89 154.26 9.89L154.26 9.89Q152.21 9.89 150.13 9.53 148.06 9.18 146.18 8.54L146.18 8.54Q146.5 7.69 146.84 6.88 147.18 6.08 147.52 5.27L147.52 5.27Q148.11 5.47 148.93 5.69 149.74 5.91 150.66 6.09 151.57 6.27 152.54 6.38 153.5 6.49 154.41 6.49L154.41 6.49Q155.82 6.49 156.97 6.12 158.12 5.74 158.92 4.98 159.73 4.22 160.16 3.11 160.58 2 160.58 0.56L160.58 0.56 160.58-4.96 160.12-4.96Q159.48-3.81 158.65-2.8 157.82-1.78 156.82-1.03 155.82-0.27 154.66 0.16 153.5 0.59 152.21 0.59L152.21 0.59Q150.43 0.59 149.11 0.18 147.79-0.22 146.85-1.01 145.91-1.81 145.31-2.99 144.71-4.17 144.4-5.74L144.4-5.74Q144.13-7.13 144.05-8.72 143.98-10.3 143.98-11.99L143.98-11.99 143.98-25.39 148.18-25.39 148.18-10.82Q148.18-9.23 148.33-7.85 148.47-6.47 148.97-5.46 149.47-4.44 150.45-3.87 151.43-3.3 153.11-3.3L153.11-3.3Q154.36-3.3 155.46-3.89 156.55-4.49 157.48-5.42 158.41-6.35 159.18-7.47 159.95-8.59 160.58-9.67L160.58-9.67 160.58-25.39ZM180.72-25.95L180.72-25.95Q182.72-25.95 184.74-25.54 186.75-25.12 188.49-24.39L188.49-24.39Q188.14-23.61 187.78-22.85 187.41-22.09 186.97-21.36L186.97-21.36Q186.36-21.61 185.62-21.85 184.87-22.09 184.05-22.27 183.24-22.44 182.37-22.55 181.5-22.66 180.67-22.66L180.67-22.66Q179.77-22.66 178.93-22.47 178.09-22.29 177.44-21.88 176.79-21.46 176.4-20.79 176.01-20.12 176.01-19.12L176.01-19.12Q176.01-18.09 176.45-17.4 176.89-16.7 177.65-16.24 178.4-15.77 179.42-15.45 180.43-15.14 181.58-14.87L181.58-14.87Q183.36-14.43 184.9-13.88 186.44-13.33 187.56-12.45 188.68-11.57 189.32-10.28 189.95-8.98 189.95-7.08L189.95-7.08Q189.95-5.08 189.16-3.64 188.36-2.2 187.01-1.26 185.65-0.32 183.85 0.13 182.04 0.59 179.99 0.59L179.99 0.59Q178.92 0.59 177.78 0.45 176.65 0.32 175.53 0.06 174.42-0.2 173.35-0.56 172.28-0.93 171.32-1.37L171.32-1.37Q171.66-2.15 172.04-2.89 172.42-3.64 172.84-4.37L172.84-4.37Q173.64-4.03 174.55-3.72 175.45-3.42 176.4-3.2 177.35-2.98 178.28-2.84 179.21-2.71 180.06-2.71L180.06-2.71Q181.14-2.71 182.15-2.95 183.16-3.2 183.96-3.72 184.75-4.25 185.23-5.08 185.7-5.91 185.7-7.08L185.7-7.08Q185.7-8.18 185.25-8.89 184.8-9.59 184.04-10.07 183.29-10.55 182.27-10.85 181.26-11.16 180.14-11.43L180.14-11.43Q178.43-11.84 176.9-12.38 175.38-12.92 174.24-13.78 173.11-14.65 172.43-15.93 171.76-17.21 171.76-19.12L171.76-19.12Q171.76-20.9 172.49-22.19 173.23-23.49 174.46-24.32 175.69-25.15 177.32-25.55 178.94-25.95 180.72-25.95Z" opacity="1" transform="matrix(1,0,0,1,0,0)" fill="#000000" class="wordmark-text-0" data-fill-palette-color="primary" id="text-0"></path></svg></g></svg></g></svg></g></svg></g><g><svg viewBox="0 0 244.43135999999998 122.21843043726793" height="122.21843043726793" width="244.43135999999998"><g><svg xmlns="http://www.w3.org/2000/svg" xmlns:xlink="http://www.w3.org/1999/xlink" version="1.1" x="0" y="0" viewBox="5.565 28.062 88.87 44.43600000000001" enable-background="new 0 0 100 100" xml:space="preserve" height="122.21843043726793" width="244.43135999999998" class="icon-icon-0" data-fill-palette-color="accent" id="icon-0"><polygon points="61.474,33.798 59.804,43.048 63.206,41.346 67.868,43.676 41.474,56.873 36.933,59.151 36.934,59.145   36.794,59.213 32.133,56.883 37.859,54.02 41.297,34.987 52.56,29.341 50.001,28.062 5.565,50.28 50.001,72.498 94.435,50.28 " fill="#000000" data-fill-palette-color="accent"></polygon><polygon points="56.138,36.308 53.315,34.582 50.509,38.899 47.686,37.172 44.878,41.491 47.701,43.218 44.896,47.537   47.719,49.264 50.524,44.946 53.349,46.672 56.157,42.354 53.331,40.627 " fill="#000000" data-fill-palette-color="accent"></polygon></svg></g></svg></g></svg></g><defs></defs></svg><rect width="395.52" height="72.94801985439021" fill="none" stroke="none" visibility="hidden"></rect></g></svg></g></svg>